<?xml version="1.0" standalone="no"?>
<!DOCTYPE svg PUBLIC "-//W3C//DTD SVG 20010904//EN"
 "http://www.w3.org/TR/2001/REC-SVG-20010904/DTD/svg10.dtd">
<svg version="1.0" xmlns="http://www.w3.org/2000/svg"
 width="718.856891pt" height="719.193222pt" viewBox="0 0 718.856891 719.193222"
 preserveAspectRatio="xMidYMid meet">
<metadata>
Created by potrace 1.12, written by Peter Selinger 2001-2015
</metadata>
<g transform="translate(-0.514786,719.681054) scale(0.100000,-0.100000)"
fill="#000000" stroke="none">
<path d="M3385 7194 c-119 -8 -391 -45 -508 -70 -119 -25 -364 -88 -402 -103
-69 -28 -131 -51 -137 -51 -4 0 -56 -21 -115 -46 -555 -234 -977 -546 -1393
-1030 -87 -100 -238 -312 -307 -429 -109 -187 -127 -222 -215 -415 -136 -299
-233 -658 -284 -1050 -25 -188 -25 -612 0 -800 68 -527 202 -940 445 -1370 54
-96 153 -256 183 -295 5 -5 40 -53 79 -105 107 -142 167 -210 333 -375 166
-166 219 -212 363 -321 54 -41 103 -77 108 -81 12 -10 105 -70 165 -108 196
-123 516 -278 680 -330 30 -10 69 -23 85 -30 100 -44 461 -124 695 -156 236
-32 643 -32 878 0 427 57 770 159 1142 339 132 64 309 165 410 234 30 21 63
44 74 51 183 120 511 419 671 612 28 33 53 62 56 65 3 3 36 46 73 95 37 50 73
97 79 105 14 17 70 102 112 170 175 278 326 621 408 925 98 361 130 599 131
970 0 281 -10 405 -55 650 -90 488 -267 926 -548 1355 -20 30 -41 62 -48 70
-6 8 -33 44 -60 80 -177 242 -462 531 -698 707 -55 41 -107 80 -115 86 -8 7
-46 33 -85 58 -482 314 -973 495 -1545 569 -150 20 -514 33 -655 24z m620
-488 c425 -61 759 -171 1125 -372 115 -63 338 -210 370 -244 3 -3 25 -21 50
-40 107 -83 253 -219 360 -336 61 -66 201 -239 239 -294 314 -454 480 -876
558 -1415 25 -172 25 -641 0 -810 -48 -326 -124 -597 -245 -870 -73 -166 -219
-423 -299 -525 -6 -8 -35 -46 -64 -85 -320 -426 -753 -769 -1239 -982 -433
-190 -858 -272 -1343 -260 -644 17 -1187 197 -1737 577 -138 96 -338 273 -475
421 -97 104 -116 128 -211 254 -128 171 -164 228 -279 440 -147 272 -270 667
-322 1030 -28 199 -25 648 5 842 97 619 313 1103 705 1578 268 324 664 631
1052 815 336 158 679 251 1090 294 94 9 554 -3 660 -18z"/>
<path d="M3540 6602 c0 -6 17 -12 38 -14 l37 -3 -3 -121 c-4 -137 -8 -131 78
-130 54 1 58 10 59 149 l1 97 40 0 c22 0 40 5 40 10 0 6 -33 10 -77 10 -43 0
-108 3 -145 7 -46 4 -68 2 -68 -5z"/>
<path d="M3290 6589 c-79 -22 -101 -51 -99 -133 2 -64 12 -89 49 -114 29 -19
46 -23 100 -21 70 2 146 24 170 47 8 9 16 41 18 77 5 77 -15 120 -63 141 -38
16 -122 17 -175 3z m94 -26 c2 -10 8 -64 11 -121 l7 -103 -32 3 c-20 2 -34 9
-35 18 -2 8 -6 61 -10 118 l-7 102 30 0 c21 0 32 -6 36 -17z"/>
<path d="M3876 6578 c-13 -44 -37 -241 -30 -248 5 -4 34 -10 64 -12 52 -3 55
-2 58 22 9 84 12 91 40 88 26 -3 27 -4 24 -64 l-3 -61 32 -7 c17 -3 46 -6 63
-6 l32 0 16 123 c9 67 13 125 9 129 -3 4 -31 10 -62 14 l-56 6 -7 -56 c-7 -54
-8 -56 -38 -56 l-31 0 6 59 c7 66 10 64 -70 76 -32 5 -44 3 -47 -7z"/>
<path d="M2906 6529 c-49 -10 -91 -20 -93 -22 -4 -5 27 -161 42 -212 12 -38
14 -40 49 -37 21 2 49 7 63 13 22 8 24 13 18 49 -4 22 -4 40 0 40 4 0 22 -16
39 -36 l33 -37 54 13 c77 18 79 19 79 27 0 4 -16 25 -35 45 -39 41 -42 52 -20
74 21 21 19 60 -5 84 -26 26 -102 26 -224 -1z m88 -11 c26 -97 25 -118 -4
-118 -14 0 -22 11 -30 43 -6 23 -13 48 -16 56 -5 15 12 31 34 31 7 0 14 -6 16
-12z"/>
<path d="M4217 6412 c-15 -60 -27 -115 -27 -123 0 -8 15 -20 33 -26 53 -19
200 -53 205 -48 6 5 -43 25 -63 25 -45 0 -52 18 -34 84 10 38 11 38 50 33 48
-6 52 8 4 17 -38 8 -40 13 -24 69 9 35 13 38 36 32 59 -14 83 -17 83 -8 0 10
-171 53 -210 53 -24 0 -27 -6 -53 -108z"/>
<path d="M2560 6424 c-58 -20 -108 -39 -112 -43 -7 -6 28 -120 44 -146 3 -5
11 -30 18 -54 11 -43 12 -43 48 -38 50 6 219 80 248 108 13 12 24 33 24 45 0
25 -34 54 -63 54 -14 0 -17 4 -12 18 18 42 18 65 0 79 -30 21 -83 15 -195 -23z
m65 -14 c4 -6 21 -53 40 -106 l34 -95 -22 -9 c-12 -4 -25 -5 -29 -1 -10 10
-68 183 -68 203 0 19 34 25 45 8z"/>
<path d="M4542 6437 c-5 -7 -26 -57 -47 -112 -20 -55 -39 -103 -42 -108 -4 -7
93 -57 113 -57 6 0 16 18 23 40 15 50 31 52 31 4 0 -51 14 -70 67 -90 27 -10
53 -21 60 -26 17 -13 22 2 14 52 -9 60 -4 78 22 82 12 2 28 15 37 30 13 25 13
30 -3 61 -20 37 -62 61 -189 108 -58 21 -79 25 -86 16z m158 -75 c0 -35 -33
-102 -50 -102 -9 0 -19 3 -23 6 -8 8 23 107 36 116 15 9 37 -2 37 -20z"/>
<path d="M4862 6257 c-30 -32 -28 -43 19 -121 22 -37 39 -75 37 -84 -5 -28
-46 -26 -85 4 -30 23 -34 31 -29 56 3 18 2 27 -4 23 -18 -11 -11 -61 13 -82
35 -33 147 -85 184 -86 22 -1 38 6 48 19 31 40 29 61 -14 129 -57 90 -45 128
28 90 31 -16 41 -33 41 -71 0 -14 4 -22 10 -19 18 11 10 55 -14 80 -35 35
-140 85 -179 85 -22 0 -41 -8 -55 -23z"/>
<path d="M3400 6243 c-239 -18 -522 -85 -780 -184 -111 -42 -345 -162 -440
-224 -166 -109 -429 -326 -509 -421 -14 -16 -50 -58 -81 -94 -148 -170 -276
-366 -374 -571 -362 -759 -353 -1602 24 -2344 116 -229 233 -397 412 -595 212
-234 459 -421 753 -570 762 -386 1626 -386 2390 0 224 113 395 232 590 408
427 385 724 926 824 1502 99 563 13 1129 -250 1647 -380 748 -1078 1265 -1909
1412 -193 35 -458 49 -650 34z m425 -53 c912 -85 1699 -622 2105 -1438 499
-1003 291 -2225 -512 -3008 -797 -778 -1987 -965 -2980 -468 -711 356 -1229
1028 -1382 1794 -43 214 -51 295 -51 530 0 261 26 470 81 660 8 30 22 80 31
110 42 151 171 434 271 595 312 501 789 888 1327 1078 251 88 414 124 695 150
82 8 313 6 415 -3z"/>
<path d="M2048 5254 c-3 -5 0 -52 8 -105 19 -136 71 -263 154 -372 48 -63 105
-87 208 -87 168 0 276 -42 380 -149 36 -36 76 -83 90 -104 15 -23 62 -63 116
-98 183 -121 909 -459 934 -435 2 3 -7 10 -20 15 -30 11 -216 96 -369 169 -58
28 -148 70 -201 95 -112 52 -124 67 -103 127 18 51 19 60 3 60 -13 0 -106 40
-243 105 -110 52 -166 92 -205 148 -45 64 -49 67 -81 67 -38 0 -96 30 -130 67
-14 15 -36 55 -48 88 -39 103 -55 128 -103 163 -61 43 -132 47 -195 11 -34
-19 -46 -22 -69 -14 -42 15 -71 67 -86 152 -12 73 -29 115 -40 97z m371 -272
c44 -33 64 -69 69 -126 4 -53 3 -57 -31 -91 -30 -30 -41 -35 -83 -35 -83 0
-154 74 -154 160 0 53 20 86 64 106 38 17 101 10 135 -14z m638 -601 c-11 -31
-27 -32 -27 -2 0 21 8 31 26 31 9 0 10 -7 1 -29z m43 6 c0 -18 -27 -53 -34
-46 -9 9 11 59 24 59 5 0 10 -6 10 -13z"/>
<path d="M2200 5155 c0 -25 1 -45 3 -46 1 0 54 -4 117 -8 136 -10 197 -32 257
-94 41 -42 62 -102 63 -175 1 -35 35 -60 100 -72 65 -12 63 -10 107 -77 34
-52 122 -122 172 -138 11 -3 50 15 100 44 45 27 87 51 94 54 9 3 12 53 12 188
l0 184 305 3 c240 2 327 -1 408 -13 251 -39 407 -134 494 -300 84 -160 89
-434 13 -586 -37 -72 -117 -149 -195 -187 -139 -68 -392 -112 -767 -134 -160
-9 -218 -9 -237 0 l-25 11 3 174 3 174 -93 46 c-106 53 -97 53 -234 -13 -105
-52 -184 -127 -227 -215 l-33 -69 0 -201 c0 -194 0 -202 27 -275 23 -62 39
-86 93 -141 69 -69 120 -101 226 -144 l65 -26 85 43 c71 36 84 47 84 68 3 367
4 371 28 377 38 9 632 -4 711 -17 244 -38 450 -141 554 -278 91 -120 120 -216
119 -407 0 -206 -35 -302 -144 -400 -69 -62 -136 -98 -290 -156 -213 -79 -294
-93 -548 -93 -233 -1 -260 4 -343 61 -71 49 -80 76 -84 251 l-4 155 -84 53
c-97 61 -96 61 -194 -5 -37 -25 -69 -57 -86 -86 -27 -48 -62 -69 -125 -79 -19
-4 -47 -17 -62 -30 -26 -21 -28 -29 -29 -97 -1 -158 -18 -198 -110 -261 -44
-30 -68 -39 -132 -48 -43 -5 -105 -10 -138 -10 l-59 0 0 -41 0 -40 978 3 c968
4 978 4 1092 27 559 110 849 348 901 737 44 335 -154 634 -514 774 -45 18 -98
38 -117 46 -19 7 -78 23 -130 35 -52 12 -99 25 -104 30 -5 4 11 13 35 19 51
13 167 52 224 75 184 74 327 198 397 344 39 80 41 89 46 200 8 210 -39 349
-175 509 -129 151 -351 258 -613 292 -184 25 -367 29 -1167 30 l-853 0 0 -45z"/>
<path d="M3865 4854 c-33 -13 -69 -28 -80 -33 -11 -5 -49 -22 -85 -37 -276
-115 -479 -211 -572 -269 -67 -42 -70 -45 -47 -54 13 -5 50 -21 83 -35 67 -30
76 -31 99 -13 16 11 16 15 0 65 -15 46 -15 54 -2 66 7 8 145 75 304 150 371
174 393 185 375 185 -8 -1 -42 -12 -75 -25z"/>
<path d="M3867 4820 c-54 -26 -122 -58 -150 -70 -29 -13 -99 -45 -157 -72 -58
-28 -141 -67 -185 -88 -103 -48 -112 -58 -96 -110 6 -22 17 -40 22 -40 6 0 54
28 107 63 54 35 139 90 190 123 51 32 110 70 131 84 22 14 84 54 140 88 56 35
101 66 101 68 0 5 7 8 -103 -46z"/>
<path d="M2640 4410 c0 -228 -11 -224 173 -68 26 22 47 44 47 48 0 16 -113
142 -153 171 -68 49 -67 51 -67 -151z"/>
<path d="M2874 4338 c-16 -13 -45 -37 -64 -55 -57 -51 -141 -108 -197 -131
-42 -18 -71 -22 -158 -22 -97 0 -108 2 -124 21 -12 16 -23 20 -39 15 -26 -9
-28 -28 -6 -61 15 -23 15 -28 0 -72 -62 -183 73 -320 219 -222 35 23 53 55
116 198 43 99 161 196 312 256 l79 32 -43 31 c-51 38 -58 39 -95 10z m-374
-265 c35 -20 50 -52 50 -104 0 -90 -55 -149 -138 -149 -86 0 -133 88 -96 178
34 81 117 115 184 75z"/>
<path d="M3265 4319 c-30 -57 -18 -69 127 -139 73 -35 162 -77 198 -93 36 -16
125 -58 199 -93 73 -35 138 -64 144 -64 6 0 -18 18 -54 39 -35 21 -101 63
-146 92 -146 96 -375 243 -414 267 l-38 23 -16 -32z"/>
<path d="M2353 3553 c-40 -20 -73 -83 -73 -139 0 -21 7 -64 15 -94 13 -48 13
-57 -1 -78 -18 -27 -10 -62 14 -62 8 0 25 9 37 20 19 17 36 20 117 21 128 1
159 -10 293 -101 12 -8 48 -37 79 -65 83 -72 87 -73 142 -37 l47 31 -26 10
c-67 26 -167 77 -212 109 -101 71 -152 141 -199 274 -38 105 -143 155 -233
111z m165 -66 c29 -29 36 -44 40 -88 9 -90 -33 -139 -118 -139 -56 0 -116 59
-125 124 -8 54 16 114 55 134 44 22 108 9 148 -31z"/>
<path d="M3850 3416 c-179 -69 -279 -115 -565 -258 -268 -134 -336 -180 -424
-290 -116 -145 -231 -204 -401 -207 -52 -1 -113 -7 -135 -12 -81 -21 -175
-149 -226 -308 -31 -98 -52 -230 -38 -245 14 -15 18 -5 33 81 15 89 35 134 68
157 31 22 48 20 107 -11 49 -25 54 -25 107 -14 75 17 136 76 159 153 33 114
99 184 184 195 31 4 47 13 64 36 77 105 161 159 402 257 44 18 82 35 84 36 2
2 -4 24 -13 48 -12 32 -14 50 -7 63 9 19 169 102 331 173 123 54 377 179 365
179 -5 0 -48 -15 -95 -33z m-750 -426 c15 -28 1 -49 -17 -25 -15 22 -17 45 -3
45 5 0 14 -9 20 -20z m-31 -37 c1 -18 -18 -16 -25 2 -4 8 -3 23 1 33 7 16 8
15 15 -3 5 -11 9 -26 9 -32z m-635 -343 c33 -12 66 -66 66 -108 0 -106 -110
-187 -203 -149 -53 22 -70 56 -65 122 3 40 11 62 29 81 54 59 113 77 173 54z"/>
<path d="M3840 3377 c-94 -46 -322 -155 -472 -225 -53 -25 -99 -51 -103 -59
-6 -17 14 -93 25 -93 3 0 43 24 88 53 44 28 129 83 189 121 59 38 146 95 193
126 47 31 106 68 133 83 44 26 57 38 40 36 -5 0 -46 -19 -93 -42z"/>
<path d="M2640 2945 c0 -175 1 -185 19 -185 23 0 166 132 187 173 15 29 15 30
-23 65 -48 45 -163 132 -174 132 -5 0 -9 -83 -9 -185z"/>
<path d="M3158 2917 c-42 -18 -79 -34 -82 -37 -2 -3 32 -28 77 -56 120 -74
772 -361 800 -351 6 2 -7 10 -29 19 -21 9 -131 60 -244 113 -113 53 -251 119
-308 145 -56 27 -105 57 -109 66 -3 9 1 38 11 63 16 43 16 46 -1 58 -23 18
-27 17 -115 -20z"/>
<path d="M3289 2870 c-16 -52 -7 -62 96 -110 44 -21 125 -59 180 -85 55 -26
134 -63 175 -82 41 -19 106 -50 144 -69 38 -19 70 -33 73 -31 2 2 -49 37 -112
78 -64 41 -164 106 -223 144 -200 131 -303 195 -312 195 -5 0 -15 -18 -21 -40z"/>
<path d="M868 4583 c-121 -285 -267 -666 -268 -698 0 -17 7 -57 15 -88 23 -91
20 -110 -27 -176 -24 -31 -23 -40 6 -51 21 -7 24 -17 30 -77 26 -270 42 -374
81 -533 69 -276 124 -428 163 -449 42 -23 89 -23 140 -1 110 47 110 74 5 279
-75 145 -143 322 -178 461 -7 30 -23 91 -34 135 -11 44 -27 130 -35 191 -18
133 -20 137 -52 154 -47 26 -67 170 -23 170 10 0 30 -5 44 -12 41 -19 40 -21
182 347 19 50 52 134 74 188 21 53 39 105 39 115 0 22 -88 82 -121 82 -20 0
-29 -8 -41 -37z m98 0 c27 -18 44 -35 44 -47 0 -11 -23 -79 -51 -150 -28 -72
-75 -194 -105 -271 -94 -242 -85 -228 -143 -199 -25 12 -35 14 -44 5 -14 -14
-16 -99 -3 -153 5 -24 5 -38 -2 -38 -9 0 -43 137 -43 175 0 21 131 358 137
352 2 -1 -15 -52 -37 -111 -50 -138 -46 -161 5 -30 69 178 105 278 101 282 -2
3 2 14 10 26 8 11 15 28 15 37 0 9 9 47 20 83 24 76 32 79 96 39z m-312 -940
c6 -15 8 -15 17 -3 8 13 12 12 24 -4 8 -11 13 -27 11 -35 -3 -9 -8 -37 -12
-63 -7 -55 -24 -55 -24 0 0 21 -9 54 -20 75 -22 42 -24 47 -11 47 5 0 12 -8
15 -17z m146 -330 c30 -121 81 -288 100 -328 5 -11 28 -63 51 -115 22 -52 44
-99 48 -105 14 -18 21 -46 11 -40 -36 22 -167 344 -205 503 -14 59 -28 116
-31 127 -10 42 -34 191 -33 210 1 11 7 -14 15 -55 7 -41 27 -130 44 -197z m16
-526 c14 -22 48 -47 95 -72 41 -21 82 -45 92 -53 28 -24 20 -92 -11 -92 -13 0
-13 2 1 18 10 10 17 26 17 35 0 21 -52 57 -82 56 l-23 0 23 -11 c27 -13 29
-28 4 -28 -26 0 -83 30 -77 40 3 4 -6 15 -20 24 -14 9 -25 25 -25 37 0 11 -7
22 -15 25 -15 6 -22 54 -7 54 4 0 17 -15 28 -33z m224 -98 c16 -30 8 -31 -13
-3 -10 13 -13 24 -8 24 6 0 15 -9 21 -21z m-60 -84 c0 -8 -7 -15 -15 -15 -16
0 -20 12 -8 23 11 12 23 8 23 -8z"/>
<path d="M6295 4604 c-46 -25 -65 -45 -65 -68 0 -23 180 -500 225 -598 28 -62
39 -67 86 -43 29 15 29 15 40 -12 21 -56 -6 -132 -56 -161 -11 -6 -20 -40 -30
-113 -18 -125 -35 -204 -80 -365 -63 -221 -94 -302 -175 -457 -92 -178 -97
-200 -45 -246 64 -56 163 -63 208 -14 73 83 201 611 223 926 6 88 9 100 30
114 28 18 30 30 8 54 -8 9 -21 37 -28 61 -11 36 -11 52 1 98 26 99 16 143 -92
410 -54 135 -115 286 -135 335 -40 100 -56 110 -115 79z m78 -32 c9 -21 19
-56 23 -78 6 -35 103 -301 156 -431 37 -91 30 -51 -11 58 -54 144 -56 151 -26
96 26 -48 107 -257 120 -309 5 -18 3 -28 -4 -28 -6 0 -11 -14 -11 -31 0 -43
-21 -119 -32 -119 -6 0 -7 9 -3 23 15 48 17 142 3 161 -14 17 -16 17 -46 2
-46 -24 -56 -20 -74 27 -9 23 -48 125 -88 227 -39 102 -86 222 -105 267 -19
45 -35 89 -35 97 0 16 83 76 106 76 6 0 19 -17 27 -38z m233 -925 c20 27 17 3
-6 -42 -11 -22 -20 -54 -20 -72 0 -54 -18 -38 -26 23 -8 65 10 123 28 91 9
-18 10 -18 24 0z m-105 -191 c-42 -245 -135 -523 -234 -698 -60 -108 -61 -88
0 34 68 138 114 256 157 408 34 115 69 275 76 340 1 12 3 12 7 1 3 -8 0 -46
-6 -85z m-21 -650 c0 -7 -9 -25 -20 -39 -11 -14 -20 -30 -20 -36 0 -6 -9 -16
-20 -23 -11 -7 -20 -21 -20 -30 0 -11 -8 -18 -20 -18 -11 0 -20 -4 -20 -10 0
-5 -14 -10 -31 -10 -33 0 -31 16 5 30 21 9 21 9 -2 9 -34 1 -80 -25 -88 -51
-5 -17 0 -27 22 -45 26 -20 26 -22 5 -16 -12 3 -28 16 -33 29 -19 41 3 69 94
116 56 29 90 53 103 75 21 33 45 44 45 19z"/>
<path d="M5158 1385 c-25 -18 -49 -38 -52 -43 -5 -8 -14 -78 -30 -244 -3 -21
0 -40 5 -43 7 -5 59 28 114 73 30 24 38 24 56 1 18 -24 18 -24 52 -6 18 10 46
30 61 44 25 23 26 27 12 42 -9 10 -13 26 -10 38 5 17 2 21 -13 17 -13 -3 -32
16 -73 76 -30 44 -59 80 -65 80 -5 0 -31 -16 -57 -35z m17 -151 c52 -74 55
-63 -33 -125 -24 -17 -45 -29 -47 -27 -6 6 19 218 26 218 4 0 28 -30 54 -66z"/>
<path d="M4883 1217 c-33 -23 -78 -101 -67 -118 3 -6 11 -3 18 7 12 16 14 14
28 -12 22 -41 68 -125 85 -152 l14 -22 59 32 c33 17 60 37 60 44 0 26 -134
244 -149 243 -9 0 -30 -10 -48 -22z"/>
<path d="M4690 1114 c-71 -11 -166 -51 -198 -83 -33 -32 -34 -36 -30 -96 9
-139 97 -189 240 -135 123 46 158 90 140 177 -13 64 -46 110 -91 129 -18 8
-34 13 -35 13 0 -1 -12 -3 -26 -5z m-37 -56 c3 -13 21 -68 41 -123 19 -55 32
-103 28 -107 -4 -4 -21 -10 -37 -13 l-30 -6 -37 114 c-43 128 -45 144 -20 150
37 10 50 6 55 -15z"/>
<path d="M2436 1067 c-37 -37 -32 -65 19 -131 25 -32 45 -67 45 -77 0 -25 -34
-33 -68 -15 -36 18 -49 34 -55 66 -4 21 -4 20 -6 -7 -1 -43 24 -65 111 -97 87
-33 131 -34 152 -4 26 36 18 69 -29 132 -48 63 -54 83 -30 92 39 15 98 -21 98
-59 0 -15 3 -27 8 -27 14 0 10 44 -6 67 -15 21 -120 67 -182 79 -26 5 -37 1
-57 -19z"/>
<path d="M4290 982 c-78 -10 -175 -37 -191 -53 -11 -11 -19 -32 -18 -51 l0
-33 12 34 c14 41 58 69 108 70 37 1 49 -11 49 -48 0 -10 -24 -44 -53 -77 -30
-32 -59 -69 -65 -81 -13 -24 -16 -89 -4 -96 4 -2 41 3 82 13 41 10 112 26 158
36 45 10 82 22 82 27 0 5 -8 6 -17 3 -30 -9 -107 -25 -120 -26 -22 0 -14 16
41 84 60 73 74 112 56 157 -14 33 -60 49 -120 41z"/>
<path d="M2771 948 c-28 -92 -53 -198 -49 -210 6 -14 105 -44 114 -35 3 3 12
28 20 56 8 28 21 75 29 104 24 83 21 91 -30 105 -65 17 -72 16 -84 -20z"/>
<path d="M2968 848 c-21 -105 -32 -178 -25 -178 2 0 12 43 22 95 9 52 20 95
25 95 4 0 17 -28 30 -62 12 -35 31 -84 42 -110 21 -46 21 -46 80 -53 33 -4 63
-3 67 1 11 12 53 235 47 242 -7 7 -12 -9 -31 -102 -8 -44 -17 -81 -19 -83 -2
-2 -23 45 -46 106 -45 118 -41 113 -130 126 l-46 7 -16 -84z"/>
<path d="M3367 871 c-21 -5 -51 -20 -65 -35 -24 -24 -27 -34 -27 -97 0 -67 2
-72 32 -99 26 -24 44 -29 107 -35 114 -11 186 10 186 53 0 10 -9 6 -27 -12
-24 -24 -32 -27 -92 -24 -36 2 -65 6 -63 11 1 4 2 57 2 117 l0 110 61 0 c54 0
64 -3 90 -29 25 -25 29 -27 29 -10 0 10 -10 25 -23 34 -28 18 -155 28 -210 16z"/>
<path d="M3785 872 c-16 -1 -54 -5 -82 -8 l-53 -5 0 -62 c0 -34 3 -92 7 -129
l6 -68 81 1 c45 0 104 4 131 9 l50 7 -67 2 -68 1 0 55 c0 42 4 55 15 56 8 1
20 3 25 4 6 1 17 3 26 4 8 0 13 5 10 10 -3 5 -24 7 -47 4 l-40 -6 3 54 3 54
53 3 c28 2 52 7 52 12 0 9 -24 9 -105 2z"/>
</g>
</svg>
